# xmcd
#
# Track frame offsets:
#	150
#	12493
#	24650
#	36919
#	48751
#	59617
#	71608
#	82470
#
# Disc length: 1246 seconds
#
# Revision: 1
# Processed by: cddbd v1.5.2PL0 Copyright (c) Steve Scherf et al.
# Submitted via: audiograbber 1.83.01
#
DISCID=6f04dc08
DTITLE=Hank Williams - Heartbroken Country Hits
DYEAR=2008
DGENRE=Country
TTITLE0=Cold Cold Heats
TTITLE1=Lovesick Blues
TTITLE2=Your Cheatin Heart
TTITLE3=Long Gone Lonesome Blues
TTITLE4=Why Dont you Love me
TTITLE5=Take These Chains from my Heart
TTITLE6=I cant help it if im still in love with you
TTITLE7=Never get out on this world alive
EXTD=2 CD Disc Set 16 Top Five Hits\nDirect Source Special Products INC.\nPO Bo
EXTD=x 2600 Pattsburgh NY USA\nEnjoy!
EXTT0=
EXTT1=
EXTT2=
EXTT3=
EXTT4=
EXTT5=
EXTT6=
EXTT7=
PLAYORDER=
